<svg id="visual" viewBox="0 0 1650 700" width="1650" height="700" xmlns="http://www.w3.org/2000/svg" xmlns:xlink="http://www.w3.org/1999/xlink" version="1.1"><rect x="0" y="0" width="1650" height="700" fill="#4158d0"></rect><defs><linearGradient id="grad1_0" x1="57.6%" y1="100%" x2="100%" y2="0%"><stop offset="2.8571428571428577%" stop-color="#c850c0" stop-opacity="1"></stop><stop offset="97.14285714285715%" stop-color="#c850c0" stop-opacity="1"></stop></linearGradient></defs><defs><linearGradient id="grad1_1" x1="57.6%" y1="100%" x2="100%" y2="0%"><stop offset="2.8571428571428577%" stop-color="#c850c0" stop-opacity="1"></stop><stop offset="97.14285714285715%" stop-color="#a652c9" stop-opacity="1"></stop></linearGradient></defs><defs><linearGradient id="grad1_2" x1="57.6%" y1="100%" x2="100%" y2="0%"><stop offset="2.8571428571428577%" stop-color="#7c56ce" stop-opacity="1"></stop><stop offset="97.14285714285715%" stop-color="#a652c9" stop-opacity="1"></stop></linearGradient></defs><defs><linearGradient id="grad1_3" x1="57.6%" y1="100%" x2="100%" y2="0%"><stop offset="2.8571428571428577%" stop-color="#7c56ce" stop-opacity="1"></stop><stop offset="97.14285714285715%" stop-color="#4158d0" stop-opacity="1"></stop></linearGradient></defs><defs><linearGradient id="grad2_0" x1="0%" y1="100%" x2="42.4%" y2="0%"><stop offset="2.8571428571428577%" stop-color="#c850c0" stop-opacity="1"></stop><stop offset="97.14285714285715%" stop-color="#c850c0" stop-opacity="1"></stop></linearGradient></defs><defs><linearGradient id="grad2_1" x1="0%" y1="100%" x2="42.4%" y2="0%"><stop offset="2.8571428571428577%" stop-color="#a652c9" stop-opacity="1"></stop><stop offset="97.14285714285715%" stop-color="#c850c0" stop-opacity="1"></stop></linearGradient></defs><defs><linearGradient id="grad2_2" x1="0%" y1="100%" x2="42.4%" y2="0%"><stop offset="2.8571428571428577%" stop-color="#a652c9" stop-opacity="1"></stop><stop offset="97.14285714285715%" stop-color="#7c56ce" stop-opacity="1"></stop></linearGradient></defs><defs><linearGradient id="grad2_3" x1="0%" y1="100%" x2="42.4%" y2="0%"><stop offset="2.8571428571428577%" stop-color="#4158d0" stop-opacity="1"></stop><stop offset="97.14285714285715%" stop-color="#7c56ce" stop-opacity="1"></stop></linearGradient></defs><g transform="translate(1650, 700)"><path d="M-700 0C-683.2 -125 -666.3 -249.9 -606.2 -350C-546.1 -450.1 -442.7 -525.2 -334.5 -579.4C-226.3 -633.6 -113.1 -666.8 0 -700L0 0Z" fill="#6257d0"></path><path d="M-525 0C-512.4 -93.7 -499.7 -187.5 -454.7 -262.5C-409.6 -337.5 -332.1 -393.9 -250.9 -434.5C-169.7 -475.2 -84.8 -500.1 0 -525L0 0Z" fill="#9254cc"></path><path d="M-350 0C-341.6 -62.5 -333.2 -125 -303.1 -175C-273.1 -225 -221.4 -262.6 -167.3 -289.7C-113.1 -316.8 -56.6 -333.4 0 -350L0 0Z" fill="#b851c5"></path><path d="M-175 0C-170.8 -31.2 -166.6 -62.5 -151.6 -87.5C-136.5 -112.5 -110.7 -131.3 -83.6 -144.8C-56.6 -158.4 -28.3 -166.7 0 -175L0 0Z" fill="#c850c0"></path></g><g transform="translate(0, 0)"><path d="M700 0C682 122.9 663.9 245.8 606.2 350C548.5 454.2 451.1 539.7 343.5 595C235.9 650.2 117.9 675.1 0 700L0 0Z" fill="#6257d0"></path><path d="M525 0C511.5 92.2 497.9 184.3 454.7 262.5C411.4 340.7 338.4 404.8 257.6 446.2C176.9 487.6 88.4 506.3 0 525L0 0Z" fill="#9254cc"></path><path d="M350 0C341 61.4 332 122.9 303.1 175C274.3 227.1 225.6 269.9 171.8 297.5C117.9 325.1 59 337.5 0 350L0 0Z" fill="#b851c5"></path><path d="M175 0C170.5 30.7 166 61.4 151.6 87.5C137.1 113.6 112.8 134.9 85.9 148.7C59 162.5 29.5 168.8 0 175L0 0Z" fill="#c850c0"></path></g></svg>