<svg width="59" height="107" viewBox="0 0 59 107" fill="none" xmlns="http://www.w3.org/2000/svg">
<path d="M34.3393 69.3034V36.6363C34.3393 35.3584 33.8226 34.1329 32.9028 33.2293C31.9829 32.3257 30.7354 31.8181 29.4346 31.8181C28.1338 31.8181 26.8862 32.3257 25.9664 33.2293C25.0466 34.1329 24.5298 35.3584 24.5298 36.6363V69.3034C23.0472 70.1443 21.8145 71.3516 20.954 72.8054C20.0936 74.2593 19.6354 75.909 19.6251 77.5907C19.6251 80.1464 20.6586 82.5974 22.4982 84.4046C24.3379 86.2118 26.8329 87.227 29.4346 87.227C32.0362 87.227 34.5313 86.2118 36.3709 84.4046C38.2106 82.5974 39.2441 80.1464 39.2441 77.5907C39.2337 75.909 38.7756 74.2593 37.9151 72.8054C37.0547 71.3516 35.8219 70.1443 34.3393 69.3034ZM51.5059 58.318V22.1818C51.5059 16.4314 49.1805 10.9166 45.0414 6.85044C40.9022 2.78432 35.2883 0.5 29.4346 0.5C23.5809 0.5 17.967 2.78432 13.8278 6.85044C9.6886 10.9166 7.36324 16.4314 7.36324 22.1818V58.318C3.97329 62.0916 1.64493 66.6692 0.608485 71.598C-0.427963 76.5268 -0.136592 81.636 1.45378 86.4203C3.04415 91.2045 5.87841 95.498 9.67621 98.876C13.474 102.254 18.1037 104.6 23.1075 105.681C25.186 106.146 27.3042 106.42 29.4346 106.5C35.1271 106.526 40.7052 104.929 45.4928 101.904C50.2804 98.8784 54.0719 94.5538 56.408 89.4542C58.744 84.3546 59.5243 78.6989 58.6542 73.1725C57.7841 67.646 55.3011 62.4861 51.5059 58.318V58.318ZM41.6964 92.3825C37.794 95.7816 32.6768 97.5186 27.4706 97.2113C22.2645 96.9041 17.3958 94.5779 13.9356 90.7443C10.4754 86.9107 8.7072 81.8839 9.01994 76.7696C9.33268 71.6553 11.7007 66.8726 15.6032 63.4735C16.0666 63.0272 16.4353 62.4951 16.6879 61.9079C16.9405 61.3206 17.0719 60.69 17.0746 60.0526V22.1818C17.0746 18.9871 18.3665 15.9233 20.666 13.6644C22.9656 11.4054 26.0844 10.1363 29.3365 10.1363C32.5885 10.1363 35.7074 11.4054 38.0069 13.6644C40.3065 15.9233 41.5983 18.9871 41.5983 22.1818V60.438C41.601 61.0755 41.7325 61.7061 41.9851 62.2933C42.2376 62.8805 42.6063 63.4127 43.0698 63.8589C45.0746 65.7615 46.6437 68.0619 47.6725 70.6069C48.7013 73.1519 49.1662 75.8831 49.0363 78.6184C48.9063 81.3538 48.1845 84.0305 46.9189 86.4703C45.6533 88.9102 43.8729 91.057 41.6964 92.7679V92.3825Z" fill="#EB5757"/>
</svg>
